<?xml version="1.0" standalone="no"?>
<!DOCTYPE svg PUBLIC "-//W3C//DTD SVG 20010904//EN"
 "http://www.w3.org/TR/2001/REC-SVG-20010904/DTD/svg10.dtd">
<svg version="1.0" xmlns="http://www.w3.org/2000/svg"
 width="1280.000000pt" height="1280.000000pt" viewBox="0 0 1280.000000 1280.000000"
 preserveAspectRatio="xMidYMid meet">

<g transform="translate(0.000000,1280.000000) scale(0.100000,-0.100000)"
fill="#000000" stroke="none">
<path d="M4065 11264 c-424 -32 -770 -121 -1097 -285 -268 -134 -476 -286
-709 -518 -169 -169 -267 -291 -385 -479 -435 -690 -534 -1566 -265 -2342 259
-749 829 -1347 1561 -1639 541 -215 1106 -256 1667 -120 282 68 626 216 851
366 492 329 854 782 1062 1328 167 439 214 944 134 1425 -61 362 -207 727
-419 1045 -318 477 -754 827 -1294 1040 -190 74 -475 143 -681 164 -112 12
-354 20 -425 15z m460 -304 c181 -27 509 -104 605 -142 41 -17 113 -55 160
-85 47 -30 130 -82 185 -116 296 -180 571 -447 758 -733 262 -401 390 -809
404 -1284 23 -819 -359 -1585 -1032 -2066 -284 -204 -647 -353 -1010 -415
-152 -27 -494 -37 -657 -20 -406 42 -820 197 -1138 424 -189 135 -315 248
-443 395 -307 354 -497 755 -579 1224 -20 117 -23 164 -23 398 1 242 3 277 27
410 116 631 442 1164 943 1541 310 234 689 395 1075 458 178 29 166 28 385 29
155 2 232 -3 340 -18z"/>
<path d="M9005 6679 c-739 -64 -1439 -422 -1921 -982 -473 -550 -716 -1242
-690 -1962 40 -1112 702 -2086 1716 -2528 549 -239 1199 -300 1774 -166 820
190 1509 721 1894 1459 343 657 421 1397 221 2104 -164 580 -502 1086 -979
1466 -177 141 -447 303 -643 387 -427 183 -912 261 -1372 222z m635 -309 c434
-73 804 -227 1143 -475 149 -109 411 -367 516 -508 262 -353 426 -738 498
-1172 26 -158 26 -612 0 -770 -77 -459 -255 -870 -525 -1208 -118 -148 -192
-229 -346 -374 -150 -143 -262 -230 -324 -251 -19 -6 -64 -31 -100 -55 -82
-53 -119 -69 -242 -106 -52 -16 -135 -43 -184 -60 -202 -73 -491 -131 -746
-152 -583 -47 -1192 146 -1665 528 -279 225 -566 593 -737 943 -171 350 -264
785 -252 1170 19 570 205 1090 552 1540 91 118 337 361 454 448 170 127 394
258 568 332 223 94 535 170 800 194 121 11 468 -3 590 -24z"/>
</g>
</svg>
